<?xml version="1.0" encoding="utf-8"?>
<svg id="master-artboard" viewBox="0 0 1590.3084716796875 1206.6339111328125" version="1.1" xmlns="http://www.w3.org/2000/svg" x="0px" y="0px" enable-background="new 0 0 1700 1400" width="1590.3084716796875px" height="1206.6339111328125px"><rect id="ee-background" x="0" y="0" width="1590.3084716796875" height="1206.6339111328125" style="fill: white; fill-opacity: 0; pointer-events: none;"/>
<g transform="matrix(6.033170223236084, 0, 0, 6.033170223236084, -3518.629955027122, 26.29258849347451)"><g id="g-3" transform="matrix(1, 0, 0, 1, 0, 0)">
	<g id="g-4">
		<path class="st0" d="M 651.6419677734375 69.62919998168945 C 679.2419677734375 69.62919998168945 705.938232421875 84.51081695556641 705.938232421875 112.1108169555664 C 705.938232421875 139.7108169555664 678.1679077148438 156.0244903564453 655.5802001953125 153.8763885498047 C 632.9924926757812 151.72828674316406 603.4320678710938 151.16739807128906 603.4320678710938 123.56739807128906 C 603.4320678710938 95.96739807128907 624.0419677734375 69.62919998168945 651.6419677734375 69.62919998168945 Z" style="fill: rgb(0, 0, 0); fill-opacity: 0.43; stroke: rgb(12, 9, 17); stroke-width: 0;"/>
	</g>
</g></g><path d="M 524.985595703125 716.7736206054688" style="fill: rgb(0, 0, 0); fill-opacity: 0.43; stroke: rgb(12, 9, 17); stroke-opacity: 1; stroke-width: 0; paint-order: stroke;" transform="matrix(1, 0, 0, 1, -2.159984323996696, -41.03970215593961)"/><g transform="matrix(0.5713888406753541, 0, 0, 0.5713888406753541, -105.95197296142578, 188.99809436141516)"><g transform="matrix(0.9215323467815624, 0, 0, 0.9215323467815624, 133.39501047134397, 54.92735725290634)"><g transform="matrix(1, 0, 0, 1, 0, 0)"><g transform="matrix(1, 0, 0, 1, 0, 0)"><g transform="matrix(1, 0, 0, 1, 0, 0)"><g transform="matrix(1, 0, 0, 1, 0, 0)"><path d="M -7.618603706359863 -460.92551136016846 L 3191.0028076171875 -439.62545001506805 L 3212.302734375 1912.7401123046875 L -3.8093013763427734 1918.0650634765625 L -7.618603706359863 -460.92551136016846 Z" fill="#E2D3AF" transform="matrix(1, 0, 0, 1, 0, 0)" style="fill: rgb(67, 26, 161);"/><g transform="matrix(1, 0, 0, 1, -1.2977271355041466, -0.32443181367835905)">
			<path d="M 1287.5999755859375 726.2999877929688 L 412.3999938964844 726.2999877929688 L 265 1159.5999755859375 L 850 957 L 1435 1159.5999755859375 L 1287.5999755859375 726.2999877929688 Z" fill="#2F302A" style="fill: rgb(46, 13, 138);"/>
			<g>
				<path d="M 265 733.7999877929688 L 265 733.7999877929688 L 265 733.7999877929688 Z" fill="none"/>
				<path d="M 1435 733.7999877929688 L 1435 733.7999877929688 L 1435 733.7999877929688 Z" fill="none"/>
				<path d="M 412.3999938964844 299.3999938964844 L 284.3999938964844 686.5999755859375 L 265 733.7999877929688 L 265 733.7999877929688 L 265 733.7999877929688 L 798.9000244140625 937.5 L 839.7999877929688 467.5 L 412.3999938964844 299.3999938964844 Z" fill="#E9A400" style="fill: rgb(38, 15, 104);"/>
				<path d="M 1435 733.7999877929688 L 1435 733.7999877929688 L 1415.5999755859375 686.5999755859375 L 1287.5999755859375 299.3999938964844 L 1287.5999755859375 299.3999938964844 L 860.2000122070312 467.5 L 901.0999755859375 937.5 L 1435 733.7999877929688 Z" fill="#E9A400" style="fill: rgb(38, 15, 104);"/>
				<path d="M 839.7999877929688 467.5 L 798.9000244140625 937.5 L 850 957 L 901.0999755859375 937.5 L 860.2000122070312 467.5 L 839.7999877929688 467.5 Z" fill="#F56E44" style="fill: rgb(38, 15, 104);"/>
				<path d="M 1435 733.7999877929688 L 1287.5999755859375 299.3999938964844 L 1415.5999755859375 686.5999755859375 L 1435 733.7999877929688 Z" fill="#2F302A"/>
				<path d="M 412.3999938964844 299.3999938964844 L 265 733.7999877929688 L 284.3999938964844 686.5999755859375 L 412.3999938964844 299.3999938964844 Z" fill="#2F302A"/>
			</g>
			<g>
				<path fill="#955B3B" d="M 805.4770874023437 939.965576171875 L 265 1159.6 L 284.4 1206.8 L 822.789990234375 985.3069946289062 C 810.589990234375 973.4069946289062 807.7770874023438 957.765576171875 805.4770874023437 939.965576171875 Z" style="fill: rgb(147, 69, 242);"/>
				<path fill="#955B3B" d="M 906.3342651367187 955.7540771484375 L 1435 733.8 L 1415.6 686.5999999999999 L 876.6895996093749 916.0315795898437 C 886.5895996093749 929.1315795898437 891.2720703124999 931.7133178710936 891.2720703124999 949.4133178710937 C 891.2720703125 949.9133178710938 906.3342651367187 955.2540771484375 906.3342651367187 955.7540771484375 Z" style="fill: rgb(147, 69, 242);"/>
				
			<path style="fill: rgb(147, 69, 242); fill-opacity: 1; stroke: rgb(0, 0, 0); stroke-opacity: 1; stroke-width: 0; paint-order: fill;"/></g>
			<g>
				<path fill="#955B3B" d="M 891.4220825195313 935.6302490234375 L 1435 1159.6 L 1415.6 1206.8 C 1415.6 1206.8 872.3108633073085 980.7188598632812 878.6973144531249 980.7188598632812 C 890.897314453125 968.8188598632812 889.1220825195312 953.4302490234375 891.4220825195313 935.6302490234375 Z" style="fill: rgb(147, 69, 242);"/>
				<path fill="#955B3B" d="M 794.644677734375 956.244677734375 L 265 733.8 L 284.4 686.5999999999999 L 823.5000366210937 914.4896484374999 C 813.6000366210938 927.5896484374999 805.82509765625 934.2369384765624 805.82509765625 951.9369384765624 C 805.82509765625 952.4369384765625 794.644677734375 955.744677734375 794.644677734375 956.244677734375 Z" style="fill: rgb(147, 69, 242);"/>
				
			</g>
			<g transform="matrix(0.7831066250801088, 0, 0, 0.7831066250801088, 183.1965551270593, 208.82145553168073)">
				<g>
					<path fill="#955B3B" d="M 850 891.3 C 819.4 891.3 794.6 916.0999999999999 794.6 946.6999999999999 C 794.6 977.3 819.4 1002.0999999999999 850 1002.0999999999999 C 880.6 1002.0999999999999 905.4 977.3 905.4 946.6999999999999 C 905.4 916.1 880.6 891.3 850 891.3 Z M 872.1 959.9 C 872.1 972.1 862.2 982 850 982 C 837.8 982 827.9 972.1 827.9 959.9 L 827.9 948.1999999999999 C 827.9 935.9999999999999 837.8 926.0999999999999 850 926.0999999999999 C 862.2 926.0999999999999 872.1 935.9999999999999 872.1 948.1999999999999 L 872.1 959.9 Z" style="stroke: rgb(178, 128, 255); fill: rgb(185, 162, 216);"/>
					
					
				<path fill="#F7F3E7" d="M 850 937.8 C 837.8 937.8 827.9 947.6999999999999 827.9 959.9 C 827.9 972.1 837.8 982 850 982 C 862.2 982 872.1 972.1 872.1 959.9 C 872.1 947.7 862.2 937.8 850 937.8 Z" transform="matrix(1.3229656219482422, 0, 0, 1.3229656219482422, -273.54748713402944, -315.20556818871694)" style="fill: rgb(185, 162, 216);"/></g>
				
				
			</g>
			<path d="M 473.1000061035156 307 L 358.70001220703125 667.2000122070312 L 584.2149047851562 738.1339111328125 L 807.0999755859375 842.3599243164062 L 837.5999755859375 447.79998779296875 L 473.1000061035156 307 Z" fill="#1E4F47" style="fill: rgb(38, 15, 104);"/>
			<path d="M 1226.9000244140625 307 L 1341.300048828125 667.2000122070312 L 892.9000244140625 838.2999877929688 L 862.4000244140625 447.79998779296875 L 1226.9000244140625 307 Z" fill="#1E4F47" style="fill: rgb(38, 15, 104);"/>
			
			<g transform="matrix(1, 0, 0, 1, 0.9015212121550462, -5.684341886080802e-14)">
				<path fill="#E2D3AF" d="M 485.5 585.4 L 419.235107421875 576.3309814453124 L 399.9154907226563 651.1732666015624 L 468.0243225097656 662.5392456054688 L 553.9415283203125 686.8663330078125 L 627.4756469726562 722.1111450195312 L 725.140625 768.5665893554688 L 831.409912109375 724.2711059570312 L 794.4 705.0999999999999 C 701.2 643.7 595.8 602.9 485.5 585.4 Z" transform="matrix(1.3787099827826526, 0, 0, 1.3787099827826526, -150.95380144862762, -260.9311896945591)"/>
				
				<path fill="#F7F3E7" d="M 850 382.6 C 751 314.8 637.8 270.6 519.1 253.40000000000003 L 514.1 252.70000000000005 L 412.1 573.8000000000001 L 485.6 585.5000000000001 C 595.9 603.0000000000001 701.2 643.8000000000001 794.5 705.3000000000001 L 850.1 741.9000000000001 L 850 382.6 L 850 382.6 Z"/>
				<g>
					<path fill="#F56E44" d="M 819.7 678.8 L 803.5 668.4 C 757.5 638.8 708.3 613.8 657.3 594 C 603.5 573.1 547.3 558 490.29999999999995 548.9 L 451.69999999999993 542.8 L 535.1999999999999 280.09999999999997 L 544.3 281.79999999999995 C 639.6999999999999 299.59999999999997 733.3 336.69999999999993 814.9 389.19999999999993 L 819.6999999999999 392.29999999999995 L 819.6999999999999 678.8 L 819.7 678.8 Z M 479 525.9 L 493.5 528.1999999999999 C 552 537.4999999999999 609.6 552.9999999999999 664.9 574.4 C 711.3 592.4 756.1999999999999 614.6 798.7 640.6 L 798.7 403.7 C 723.1 356 637.3000000000001 321.7 549.5 304.1 L 479 525.9 Z" style="fill: rgb(147, 69, 242);"/>
				</g>
			<path style="fill: rgb(226, 211, 175); fill-opacity: 1; stroke: rgb(0, 0, 0); stroke-opacity: 1; stroke-width: 0; paint-order: fill;"/><path d="M 1093.2371826171875 726.4288330078125 L 1093.2371826171875 726.4288330078125" style="fill: rgb(226, 211, 175); fill-opacity: 1; stroke: rgb(0, 0, 0); stroke-opacity: 1; stroke-width: 0; paint-order: fill;"/><path style="fill: rgb(226, 211, 175); fill-opacity: 1; stroke: rgb(0, 0, 0); stroke-opacity: 1; stroke-width: 0; paint-order: fill;"/></g>
			<path fill="#E2D3AF" d="M 1214.5 585.4 L 1288 573.6999999999999 L 1301.4 649.1999999999999 L 1216.760986328125 659.388916015625 L 1088.068359375 696.8995971679688 L 991.314208984375 739.7149658203125 L 966.8971557617188 750.869140625 L 850.016845703125 793.587158203125 L 850 741.8 L 905.6 705.1999999999999 C 998.8 643.7 1104.2 602.9 1214.5 585.4 Z"/>
			
			<g>
				<path fill="#F7F3E7" d="M 1206.4 528.2 L 1220.9 525.9000000000001 L 1150.4 304.2000000000001 C 1094 315.5000000000001 1038.4 333.7000000000001 985.8000000000001 357.9000000000001 C 933.1 425.6000000000001 901.6 510.7000000000001 901.6 603.2 C 901.6 615.4000000000001 902.2 627.5 903.2 639.4000000000001 C 945.1 614.0000000000001 989.3000000000001 592.2 1034.8 574.5000000000001 C 1090.3 553.1 1147.9 537.5 1206.4 528.2 Z"/>
				<path fill="#EFE6CE" d="M 985.9 357.9 C 956.6 371.4 928.3 386.7 901.3 403.79999999999995 L 901.3 640.6999999999999 C 902 640.3 902.6999999999999 639.8 903.4 639.4 C 902.3 627.5 901.8 615.4 901.8 603.1999999999999 C 901.8 510.7 933.2 425.6 985.9 357.9 Z"/>
				<path fill="#EFE6CE" d="M 896.5 668.4 L 880.3 678.8 L 880.3 392.3 L 885.0999999999999 389.2 C 926.6999999999999 362.4 971.4999999999999 339.7 1017.9999999999999 321.4 C 1033.6999999999998 305.59999999999997 1050.6999999999998 291.09999999999997 1068.8999999999999 278.2 C 991.1999999999998 301.4 917.2999999999998 336.59999999999997 849.9999999999999 382.7 L 849.9999999999999 382.7 L 849.9999999999999 741.9 L 905.5999999999999 705.3 C 908.3 703.5 910.9999999999999 701.8 913.5999999999999 700.0999999999999 C 910.4999999999999 687.8 907.9999999999999 675.1999999999999 906.0999999999999 662.3999999999999 C 902.9 664.3 899.7 666.3 896.5 668.4 Z"/>
				<path fill="#F7F3E7" d="M 1287.9 573.8 L 1185.9 252.69999999999993 L 1180.9 253.39999999999992 C 1142.9 258.8999999999999 1105.5 267.19999999999993 1069 278.0999999999999 C 1050.9 291.0999999999999 1033.8 305.5999999999999 1018.1 321.2999999999999 C 1062.7 303.7999999999999 1109 290.3999999999999 1155.8 281.6999999999999 L 1164.8999999999999 279.9999999999999 L 1248.3999999999999 542.6999999999998 L 1209.8 548.7999999999998 C 1152.8 557.7999999999998 1096.6 572.9999999999999 1042.8 593.8999999999999 C 995.4 612.2999999999998 949.5 635.1999999999998 906.3 662.1999999999998 C 908.1999999999999 674.9999999999998 910.6999999999999 687.4999999999998 913.8 699.8999999999999 C 1005.0999999999999 641.3999999999999 1107.5 602.2999999999998 1214.6 585.2999999999998 L 1287.9 573.8 Z"/>
				<path fill="#955B3B" d="M 880.3 392.3 L 880.3 678.9000000000001 L 896.5 668.5000000000001 C 899.7 666.4000000000001 902.9 664.4000000000001 906.2 662.4000000000001 C 905.1 654.8000000000001 904.2 647.2 903.5 639.4000000000001 C 902.8 639.8000000000001 902.1 640.2 901.4 640.7 L 901.4 403.7 C 928.4 386.59999999999997 956.8 371.3 986 357.8 C 996 345 1006.7 332.8 1018.1 321.3 C 971.6 339.6 926.8000000000001 362.3 885.2 389.1 L 880.3 392.3 Z" style="fill: rgb(147, 69, 242);"/>
				<path fill="#F56E44" d="M 1150.5 304.2 L 1221 525.9 L 1206.5 528.1999999999999 C 1148 537.4999999999999 1090.4 552.9999999999999 1035.1 574.4 C 989.4999999999999 592.1 945.3 613.9 903.4999999999999 639.3 C 904.1999999999999 647 905.0999999999999 654.6999999999999 906.1999999999999 662.3 C 949.4 635.4 995.3 612.4 1042.6999999999998 594 C 1096.4999999999998 573.1 1152.6999999999998 558 1209.6999999999998 548.9 L 1248.2999999999997 542.8 L 1164.7999999999997 280.09999999999997 L 1155.6999999999998 281.79999999999995 C 1108.9999999999998 290.49999999999994 1062.6999999999998 303.9 1017.9999999999998 321.4 C 1006.5999999999998 332.9 995.7999999999997 345.09999999999997 985.8999999999997 357.9 C 1038.5 333.7 1094.1 315.5 1150.5 304.2 Z" style="fill: rgb(147, 69, 242);"/>
			</g>
		<path style="fill: rgb(30, 79, 71); fill-opacity: 1; stroke: rgb(0, 0, 0); stroke-opacity: 1; stroke-width: 0; paint-order: fill;"/><path style="fill: rgb(226, 211, 175); fill-opacity: 1; stroke: rgb(0, 0, 0); stroke-opacity: 1; stroke-width: 0; paint-order: fill;"/></g></g></g></g></g></g></g><path d="M 382.29998779296875 193.1999969482422 L 392.3999938964844 225.5 L 424.70001220703125 235.6999969482422 L 392.3999938964844 245.8000030517578 L 382.29998779296875 278.1000061035156 L 372.1000061035156 245.8000030517578 L 339.79998779296875 235.6999969482422 L 372.1000061035156 225.5 Z" fill="#F7F3E7" transform="matrix(1, 0, 0, 1, -217.47408210813273, 8.696899438430137)"/><path d="M 1402.5 338.1000061035156 L 1411.0999755859375 365.29998779296875 L 1438.300048828125 373.8999938964844 L 1411.0999755859375 382.5 L 1402.5 409.70001220703125 L 1393.9000244140625 382.5 L 1366.699951171875 373.8999938964844 L 1393.9000244140625 365.29998779296875 Z" fill="#F7F3E7" transform="matrix(1, 0, 0, 1, -547.3070778617259, 183.52310654554506)"/><path d="M 918.7999877929688 253.89999389648438 L 925 273.6000061035156 L 944.5999755859375 279.79998779296875 L 925 286 L 918.7999877929688 305.70001220703125 L 912.5999755859375 286 L 892.9000244140625 279.79998779296875 L 912.5999755859375 273.6000061035156 Z" fill="#F7F3E7" transform="matrix(1, 0, 0, 1, -387.70842207151065, -68.63945723854852)"/>
</svg>